<svg xmlns="http://www.w3.org/2000/svg" xmlns:xlink="http://www.w3.org/1999/xlink" width="453" height="499" viewBox="0 0 453 499"><defs><clipPath id="a"><rect width="326.242" height="390.694" fill="#488eff"/></clipPath><clipPath id="c"><rect width="453" height="499"/></clipPath></defs><g id="b" clip-path="url(#c)"><g transform="translate(39.384 59.753) rotate(-28)"><g clip-path="url(#a)"><path d="M93.867,281.67A34.26,34.26,0,0,1,96,269.778,33.88,33.88,0,0,1,73.722,266.1a34.228,34.228,0,0,1-17.747-30L55.9,92.838l-.01-11.943A89.063,89.063,0,0,0,43.547,35.808,89.225,89.225,0,0,0,4.862.365,3.577,3.577,0,0,0,3.323,0,3.3,3.3,0,0,0,1.56.528,3.278,3.278,0,0,0,0,3.455l.192,383.36A3.753,3.753,0,0,0,2.2,390.208a3.228,3.228,0,0,0,3.5-.061l117.366-74.387a34.313,34.313,0,0,1-29.2-34.09" transform="translate(0 0)" fill="#488eff"/><path d="M435.173,254.833,301.75,338.889a20.076,20.076,0,0,1-10.7,3.116c-.29,0-.589-.015-.88-.023a20.517,20.517,0,0,1-19.636-20.432,20.014,20.014,0,0,1,9.343-16.972l40.891-25.759c.071-.047.142-.094.212-.133a29.929,29.929,0,0,0-1.8-51.651c-.416-.226-.833-.437-1.257-.648-.087-.047-.181-.086-.267-.133L242.644,187.5a20.548,20.548,0,0,1-11.731-18.456l-.008-16.98a10.931,10.931,0,0,1,5.131-9.31,11.091,11.091,0,0,1,10.663-.641L433.916,235.44a11.176,11.176,0,0,1,6.365,9.4,10.872,10.872,0,0,1-5.107,10" transform="translate(-114.061 -69.673)" fill="#488eff"/><path d="M245.121,484.718a30.825,30.825,0,0,1,6.288-18.747l-24.2,15.339a39.92,39.92,0,0,1-7.8,3.8,34.428,34.428,0,0,0-5.722,18.975,34.313,34.313,0,0,0,29.2,34.09c1.056.148,2.126.25,3.21.3.481.013.973.039,1.453.039.648,0,1.292-.031,1.938-.07l28.813-18.26c-17.932-2.079-33.175-18.591-33.186-35.466" transform="translate(-105.559 -230.178)" fill="#80e7ff"/></g></g><text transform="translate(9 485)" font-size="40" font-family="Poppins-Regular, Poppins"><tspan x="0" y="0">Lejin The Ripple Maker</tspan></text></g></svg>